<svg height="512" viewBox="0 0 60 54" width="512" xmlns="http://www.w3.org/2000/svg"><g id="035---Right-Arrows" fill="none"><g id="Icons" transform="translate(1 1)"><path id="Shape" d="m32.89 23.24-21-22c-.75206-.79282992-1.7972182-1.24127151-2.89-1.24h-5c-1.59950717.00209304-3.04398742.95686085-3.67275155 2.42760326-.62876414 1.4707424-.32091071 3.17465878.78275155 4.33239674l.23.24 18.13 19-18.13 19-.23.24c-1.10366226 1.157738-1.41151569 2.8616543-.78275155 4.3323967.62876413 1.4707424 2.07324438 2.4255103 3.67275155 2.4276033h5c1.092395-.0006124 2.1368412-.4487485 2.89-1.24l21-22c1.4801808-1.5423186 1.4801808-3.9776814 0-5.52z" fill="#e8edfc"/><path id="Shape" d="m56.89 28.76-21 22c-.7531588.7912515-1.797605 1.2393876-2.89 1.24h-5c-1.5995072-.002093-3.0439874-.9568609-3.6727516-2.4276033-.6287641-1.4707424-.3209107-3.1746587.7827516-4.3323967l.23-.24 18.13-19-18.13-19-.23-.24c-1.1036623-1.15773796-1.4115157-2.86165434-.7827516-4.33239674.6287642-1.47074241 2.0732444-2.42551022 3.6727516-2.42760326h5c1.0927818-.00127151 2.13794.44717008 2.89 1.24l21 22c1.4801808 1.5423186 1.4801808 3.9776814 0 5.52z" fill="#cad9fc"/><path id="Shape" d="m52.89 28.76-21 22c-.7531588.7912515-1.797605 1.2393876-2.89 1.24h-1c-1.5995072-.002093-3.0439874-.9568609-3.6727516-2.4276033-.6287641-1.4707424-.3209107-3.1746587.7827516-4.3323967l.23-.24 18.13-19-18.13-19-.23-.24c-1.1036623-1.15773796-1.4115157-2.86165434-.7827516-4.33239674.6287642-1.47074241 2.0732444-2.42551022 3.6727516-2.42760326h1c1.0927818-.00127151 2.13794.44717008 2.89 1.24l21 22c1.4801808 1.5423186 1.4801808 3.9776814 0 5.52z" fill="#e8edfc"/><g fill="#a4c2f7"><path id="Shape" d="m24.47 26-18.13 19h-5l18.13-19z"/><path id="Shape" d="m9 52h-5c-1.59950717-.002093-3.04398742-.9568609-3.67275155-2.4276033-.62876414-1.4707424-.32091071-3.1746587.78275155-4.3323967l.23-.24h5l-.23.24c-1.10366226 1.157738-1.41151569 2.8616543-.78275156 4.3323967.62876414 1.4707424 2.07324439 2.4255103 3.67275156 2.4276033z"/><path id="Shape" d="m6.11 6.76.23.24h-5l-.23-.24c-1.10366226-1.15773796-1.41151569-2.86165434-.78275155-4.33239674.62876413-1.47074241 2.07324438-2.42551022 3.67275155-2.42760326h5c-1.59950717.00209304-3.04398742.95686085-3.67275156 2.42760326-.62876413 1.4707424-.3209107 3.17465878.78275156 4.33239674z"/><path id="Shape" d="m33 52h-5c-1.5995072-.002093-3.0439874-.9568609-3.6727516-2.4276033-.6287641-1.4707424-.3209107-3.1746587.7827516-4.3323967l.23-.24h5l-.23.24c-1.1036623 1.157738-1.4115157 2.8616543-.7827516 4.3323967.6287642 1.4707424 2.0732444 2.4255103 3.6727516 2.4276033z"/><path id="Shape" d="m30.11 6.76.23.24h-5l-.23-.24c-1.1036623-1.15773796-1.4115157-2.86165434-.7827516-4.33239674.6287642-1.47074241 2.0732444-2.42551022 3.6727516-2.42760326h5c-1.5995072.00209304-3.0439874.95686085-3.6727516 2.42760326-.6287641 1.4707424-.3209107 3.17465878.7827516 4.33239674z"/><path id="Shape" d="m48.47 26h-5l-18.13-19h5z"/><path id="Shape" d="m48.47 26-18.13 19h-5l18.13-19z"/></g></g><path id="Shape" d="m1.11 45.24c-1.10366226 1.157738-1.41151569 2.8616543-.78275155 4.3323967.62876413 1.4707424 2.07324438 2.4255103 3.67275155 2.4276033h3c-1.59950717-.002093-3.04398742-.9568609-3.67275156-2.4276033-.62876413-1.4707424-.3209107-3.1746587.78275156-4.3323967.364-.38 18-18.86 18.36-19.24-.363-.38-18-18.86-18.36-19.24-1.10366226-1.15773796-1.41151569-2.86165434-.78275156-4.33239674.62876414-1.47074241 2.07324439-2.42551022 3.67275156-2.42760326h-3c-1.59950717.00209304-3.04398742.95686085-3.67275155 2.42760326-.62876414 1.4707424-.32091071 3.17465878.78275155 4.33239674.364.38 18 18.86 18.36 19.24-.363.38-17.996 18.86-18.36 19.24z" fill="#fff" transform="translate(1 1)"/><path id="Rectangle-path" d="m3.008 40.106h8v2h-8z" fill="#fff" transform="matrix(.69 -.723 .723 .69 -27.568 17.798)"/><g fill="#428dff"><path id="Shape" d="m7.732 41.8c.27948738-.2925111.35518981-.724606.19179165-1.09471s-.53370066-.6052911-.93815918-.5958452c-.40445852.009446-.7633779.2616637-.90932009.6389922-.1459422.3773285-.05015053.8054183.24268762 1.084563.39942808.3807503 1.03178222.365982 1.413-.033z"/><path id="Shape" d="m4.938 43.276c-.19199961-.1830336-.44885535-.2822826-.714043-.2759061-.26518766.0063765-.51697638.117856-.699957.3099061l-2.137 2.239c-1.38033203 1.447164-1.76554783 3.5776323-.97937714 5.4165276.7861707 1.8388952 2.59247816 3.0324362 4.59237714 3.0344724h5c1.3675615.0049235 2.676425-.5552426 3.617-1.548l21-22c1.8453518-1.9298562 1.8453518-4.9701438 0-6.9l-21-22c-.9452823-.98647186-2.2507436-1.54662554-3.617-1.552h-5c-1.9996564.00201742-3.80580484 1.19525597-4.59214277 3.03381586-.78633792 1.83855989-.40162187 3.96881434.97814277 5.41618414l17.702 18.55-10.041 10.522c-.26455907.255032-.36793135.6346173-.2692192.9885788.09871214.3539615.38360401.6252683.74196262.7065822s.73244458-.0404666.97425658-.317161l10.406-10.9h2.235l-16.229 17h-2.23l.295-.31c.18316206-.1918691.28258814-.4486494.27639921-.7138357s-.11748574-.5170488-.30939921-.7001643zm-2.009 7.889c-1.17815917-1.1148-1.24491319-2.9683366-.15-4.165h2.654c-.74205248 1.646734-.51801333 3.5681675.583 5-1.077 0-2.092.122-3.087-.835zm30.241-26.236c1.1091018 1.1579288 1.1091018 2.9840712 0 4.142l-21 22c-.8424409.86518-2.1200604 1.1437982-3.24622983.7079249-1.1261694-.4358733-1.88330815-1.5020256-1.92377017-2.7089249-.02126921-.795841.27732666-1.5670036.829-2.141 18.283-19.154 18.454-19.279 18.565-19.552.1470936-.3036994.1041492-.6652128-.11-.926-.165-.246 1.389 1.41-18.454-19.38-.7592091-.77178394-1.043701-1.89275035-.74441442-2.93317164.29928659-1.04042129 1.13592013-1.83888584 2.18917336-2.08929862 1.05325326-.25041279 2.15972376.08607539 2.89524106.88047026zm-12.27 1.071-16.225-17h2.231l16.227 17zm-17.971-23.165c.85609135-.71884517 1.98527167-1.02427619 3.087-.835-1.10101333 1.4318325-1.32505248 3.35326603-.583 5h-2.654c-1.09491319-1.19666336-1.02815917-3.05019999.15-4.165z"/><path id="Shape" d="m37.617 1.548c-.9456922-.98538546-2.2512389-1.54413204-3.617-1.548h-5c-1.9996564.00201742-3.8058048 1.19525597-4.5921428 3.03381586-.7863379 1.83855989-.4016218 3.96881434.9781428 5.41618414l17.701 18.55-17.7 18.549c-1.380332 1.447164-1.7655478 3.5776323-.9793771 5.4165276.7861707 1.8388952 2.5924781 3.0324362 4.5923771 3.0344724h5c1.3675615.0049235 2.676425-.5552426 3.617-1.548l21-22c1.8443296-1.9302661 1.8443296-4.9697339 0-6.9zm-10.689 1.287c.8563342-.71913438 1.9859471-1.02458344 3.088-.835-1.1010133 1.4318325-1.3250525 3.35326603-.583 5h-2.654c-1.0946329-1.19659578-1.02834-3.04968248.149-4.165zm1.748 6.165h2.23l16.226 17h-2.232zm16.224 19h2.234l-16.228 17h-2.23zm-17.971 23.165c-1.1781592-1.1148-1.2449132-2.9683366-.15-4.165h2.654c-.7420525 1.646734-.5180133 3.5681675.583 5-1.077 0-2.092.122-3.087-.835zm30.241-22.094-21 22c-1.1602574 1.1602327-3.0273474 1.2042574-4.241.1-1.1985555-1.1435845-1.2433235-3.0421955-.1-4.241 19.756-20.7 18.625-19.31 18.636-19.91.012-.635 1.122.753-18.636-19.948-.7592091-.77178394-1.043701-1.89275035-.7444144-2.93317164s1.1359201-1.83888584 2.1891733-2.08929862c1.0532533-.25041279 2.1597238.08607539 2.8952411.88047026l21 22c1.1056781 1.1587602 1.1061184 2.9817059.001 4.141z"/></g></g></svg>